<svg id="Layer_1" data-name="Layer 1" xmlns="http://www.w3.org/2000/svg" viewBox="0 0 377.54 114.37"><defs><style>.cls-1{fill:#231f20;}.cls-2{fill:#009444;}</style></defs><path class="cls-1" d="M231.71,387a4.23,4.23,0,0,1,2.71.81,3,3,0,0,1,1,2.46,3.16,3.16,0,0,1-.64,2.07,3.25,3.25,0,0,1-1.8,1.05l2.6,4.42a.49.49,0,0,1,0,.18.34.34,0,0,1-.1.23.33.33,0,0,1-.23.09h-.19a.52.52,0,0,1-.4-.13,1.46,1.46,0,0,1-.22-.3l-2.56-4.35h-3.33V398a.32.32,0,0,1-.37.35H228a.32.32,0,0,1-.36-.35V387.41c0-.25.12-.38.36-.38Zm-3.1,5.56h3c1.85,0,2.78-.76,2.78-2.29s-.93-2.3-2.78-2.3h-3Z" transform="translate(-102.21 -308.37)"/><path class="cls-1" d="M237.2,393.5a5.77,5.77,0,0,1,.33-1.51,3.77,3.77,0,0,1,.72-1.18,3,3,0,0,1,1.07-.75,3.4,3.4,0,0,1,1.42-.28,3.25,3.25,0,0,1,2.63,1.11,4.57,4.57,0,0,1,.94,3.06v.24a.33.33,0,0,1-.1.26.41.41,0,0,1-.27.1h-5.75v.16a3.49,3.49,0,0,0,.2,1.06,2.94,2.94,0,0,0,.51.92,2.62,2.62,0,0,0,.79.64,2.26,2.26,0,0,0,1.05.24,2.77,2.77,0,0,0,.91-.13,4.07,4.07,0,0,0,.66-.3,2.05,2.05,0,0,0,.44-.35,3.37,3.37,0,0,0,.24-.27.71.71,0,0,1,.22-.25.59.59,0,0,1,.26,0h.26a.37.37,0,0,1,.25.09.24.24,0,0,1,.09.23,1.33,1.33,0,0,1-.25.57,2.89,2.89,0,0,1-.66.64,4.29,4.29,0,0,1-1,.53,4.15,4.15,0,0,1-1.37.21,3.49,3.49,0,0,1-1.4-.26,3.11,3.11,0,0,1-1.09-.76,3.77,3.77,0,0,1-.72-1.18,5.86,5.86,0,0,1-.33-1.51c0-.16,0-.38,0-.65S237.19,393.66,237.2,393.5Zm1,.14h5.14v-.06a3.48,3.48,0,0,0-.18-1.13,2.79,2.79,0,0,0-.51-.91,2.16,2.16,0,0,0-.82-.6,2.51,2.51,0,0,0-1.08-.22,2.45,2.45,0,0,0-1.08.22,2.25,2.25,0,0,0-.8.6,2.6,2.6,0,0,0-.5.91,3.77,3.77,0,0,0-.17,1.13Z" transform="translate(-102.21 -308.37)"/><path class="cls-1" d="M248,395.58a2.65,2.65,0,0,0,.29,1.35,1.07,1.07,0,0,0,1,.48h.87a.31.31,0,0,1,.35.35V398a.31.31,0,0,1-.35.35h-.95a2.38,2.38,0,0,1-1.06-.21,1.74,1.74,0,0,1-.68-.57,2.3,2.3,0,0,1-.36-.86,5,5,0,0,1-.1-1.05v-4.77h-1.26a.32.32,0,0,1-.36-.36v-.22a.32.32,0,0,1,.36-.36H247v-2.71a.32.32,0,0,1,.35-.36h.28c.24,0,.35.12.35.36v2.71h2a.32.32,0,0,1,.35.36v.22a.32.32,0,0,1-.35.36h-2Z" transform="translate(-102.21 -308.37)"/><path class="cls-1" d="M255.36,389.94h.6c.24,0,.35.12.35.36v.22c0,.24-.11.36-.35.36h-.7a2.1,2.1,0,0,0-1.53.56,2.08,2.08,0,0,0-.57,1.54v5a.34.34,0,0,1-.1.26.4.4,0,0,1-.27.09h-.26a.31.31,0,0,1-.35-.35v-7.68a.35.35,0,0,1,.1-.26.33.33,0,0,1,.25-.11h.26a.37.37,0,0,1,.27.11.35.35,0,0,1,.1.26v.75A2.24,2.24,0,0,1,255.36,389.94Z" transform="translate(-102.21 -308.37)"/><path class="cls-1" d="M259.92,401.17a1.09,1.09,0,0,1-.13.17.36.36,0,0,1-.24.07h-.33a.31.31,0,0,1-.22-.09.3.3,0,0,1-.1-.23,1,1,0,0,1,.1-.32l1.24-2.91-3.09-7.27a1.22,1.22,0,0,1-.09-.32.32.32,0,0,1,.09-.23.34.34,0,0,1,.23-.1h.34a.33.33,0,0,1,.24.08.37.37,0,0,1,.13.17l2.72,6.39,2.77-6.39a.59.59,0,0,1,.13-.17.37.37,0,0,1,.25-.08h.32a.3.3,0,0,1,.22.1.29.29,0,0,1,.1.23,1,1,0,0,1-.1.32Z" transform="translate(-102.21 -308.37)"/><path class="cls-1" d="M266.25,394a.32.32,0,0,1-.36-.36v-.23a.32.32,0,0,1,.36-.35H271a.31.31,0,0,1,.35.35v.23a.32.32,0,0,1-.35.36Z" transform="translate(-102.21 -308.37)"/><path class="cls-1" d="M275.28,389.94h2.13a.32.32,0,0,1,.36.36v.22a.32.32,0,0,1-.36.36h-2.13V398a.31.31,0,0,1-.35.35h-.28a.31.31,0,0,1-.35-.35v-7.11h-1.44a.32.32,0,0,1-.36-.36v-.22a.32.32,0,0,1,.36-.36h1.44V389a4.9,4.9,0,0,1,.1-1,2.15,2.15,0,0,1,.38-.84,1.94,1.94,0,0,1,.74-.56,3,3,0,0,1,1.22-.21h.84a.31.31,0,0,1,.35.35V387a.32.32,0,0,1-.35.36h-.84a1.27,1.27,0,0,0-1.16.46,2.37,2.37,0,0,0-.3,1.31Z" transform="translate(-102.21 -308.37)"/><path class="cls-1" d="M282.5,389.94h.6a.32.32,0,0,1,.36.36v.22a.32.32,0,0,1-.36.36h-.69a2.11,2.11,0,0,0-1.54.56,2.08,2.08,0,0,0-.57,1.54v5a.34.34,0,0,1-.1.26.4.4,0,0,1-.27.09h-.26a.31.31,0,0,1-.35-.35v-7.68a.35.35,0,0,1,.1-.26.33.33,0,0,1,.25-.11h.26a.37.37,0,0,1,.27.11.35.35,0,0,1,.1.26v.75A2.24,2.24,0,0,1,282.5,389.94Z" transform="translate(-102.21 -308.37)"/><path class="cls-1" d="M284.33,393.5a5.06,5.06,0,0,1,.33-1.51,3.75,3.75,0,0,1,.71-1.18,3.14,3.14,0,0,1,1.07-.75,3.44,3.44,0,0,1,1.43-.28,3.26,3.26,0,0,1,2.63,1.11,4.62,4.62,0,0,1,.94,3.06v.24a.33.33,0,0,1-.11.26.41.41,0,0,1-.27.1h-5.75v.16a3.49,3.49,0,0,0,.2,1.06,3.41,3.41,0,0,0,.51.92,2.75,2.75,0,0,0,.79.64,2.33,2.33,0,0,0,1.06.24,2.75,2.75,0,0,0,.9-.13,3.41,3.41,0,0,0,.66-.3,2.13,2.13,0,0,0,.45-.35,2.81,2.81,0,0,0,.23-.27c.1-.14.17-.23.23-.25a.54.54,0,0,1,.25,0h.26a.37.37,0,0,1,.25.09.24.24,0,0,1,.09.23,1.22,1.22,0,0,1-.25.57,2.53,2.53,0,0,1-.66.64,4,4,0,0,1-1,.53,4.24,4.24,0,0,1-1.37.21,3.54,3.54,0,0,1-1.41-.26,3.07,3.07,0,0,1-1.08-.76,3.77,3.77,0,0,1-.72-1.18,5.13,5.13,0,0,1-.33-1.51c0-.16,0-.38,0-.65S284.32,393.66,284.33,393.5Zm1,.14h5.14v-.06a3.48,3.48,0,0,0-.18-1.13,2.79,2.79,0,0,0-.51-.91,2.2,2.2,0,0,0-.81-.6,2.58,2.58,0,0,0-1.08-.22,2.5,2.5,0,0,0-1.09.22,2.25,2.25,0,0,0-.8.6,2.6,2.6,0,0,0-.5.91,3.77,3.77,0,0,0-.17,1.13Z" transform="translate(-102.21 -308.37)"/><path class="cls-1" d="M293.15,393.5a5.06,5.06,0,0,1,.33-1.51,3.75,3.75,0,0,1,.71-1.18,3.14,3.14,0,0,1,1.07-.75,3.44,3.44,0,0,1,1.43-.28,3.26,3.26,0,0,1,2.63,1.11,4.62,4.62,0,0,1,.94,3.06v.24a.33.33,0,0,1-.11.26.41.41,0,0,1-.27.1h-5.75v.16a3.49,3.49,0,0,0,.2,1.06,3.41,3.41,0,0,0,.51.92,2.75,2.75,0,0,0,.79.64,2.33,2.33,0,0,0,1.06.24,2.75,2.75,0,0,0,.9-.13,3.41,3.41,0,0,0,.66-.3,2.13,2.13,0,0,0,.45-.35,2.81,2.81,0,0,0,.23-.27c.1-.14.17-.23.23-.25a.56.56,0,0,1,.26,0h.25a.37.37,0,0,1,.25.09.24.24,0,0,1,.09.23,1.22,1.22,0,0,1-.25.57,2.53,2.53,0,0,1-.66.64,4,4,0,0,1-1,.53,4.24,4.24,0,0,1-1.37.21,3.54,3.54,0,0,1-1.41-.26,3.07,3.07,0,0,1-1.08-.76,3.77,3.77,0,0,1-.72-1.18,5.13,5.13,0,0,1-.33-1.51c0-.16,0-.38,0-.65S293.14,393.66,293.15,393.5Zm1,.14h5.14v-.06a3.48,3.48,0,0,0-.18-1.13,2.79,2.79,0,0,0-.51-.91,2.2,2.2,0,0,0-.81-.6,2.58,2.58,0,0,0-1.08-.22,2.53,2.53,0,0,0-1.09.22,2.25,2.25,0,0,0-.8.6,2.77,2.77,0,0,0-.5.91,3.77,3.77,0,0,0-.17,1.13Z" transform="translate(-102.21 -308.37)"/><path class="cls-1" d="M310.08,386.87a4.66,4.66,0,0,1,1.66.27,3.74,3.74,0,0,1,1.18.68,2.89,2.89,0,0,1,.71.91,2.43,2.43,0,0,1,.26,1,.38.38,0,0,1-.08.23.34.34,0,0,1-.26.09h-.32a.45.45,0,0,1-.2-.06.33.33,0,0,1-.16-.26,1.81,1.81,0,0,0-.85-1.33,3.32,3.32,0,0,0-1.94-.53,4.69,4.69,0,0,0-1.1.12,2.39,2.39,0,0,0-.86.35,1.74,1.74,0,0,0-.76,1.47,1.61,1.61,0,0,0,.19.82,1.73,1.73,0,0,0,.59.62,6,6,0,0,0,1,.52c.41.16.9.33,1.48.51s1.13.39,1.58.58a4.44,4.44,0,0,1,1.11.63,2.39,2.39,0,0,1,.67.83,2.75,2.75,0,0,1,.21,1.13,2.68,2.68,0,0,1-1.08,2.28,4.85,4.85,0,0,1-3,.8,5.52,5.52,0,0,1-1.75-.25,4.16,4.16,0,0,1-1.28-.65,3,3,0,0,1-.81-.93,2.37,2.37,0,0,1-.3-1.07.3.3,0,0,1,.1-.23.33.33,0,0,1,.24-.1h.32a.34.34,0,0,1,.25.1.61.61,0,0,1,.11.23,2,2,0,0,0,.82,1.31,3.29,3.29,0,0,0,.94.45,4.53,4.53,0,0,0,1.36.18,3.77,3.77,0,0,0,2.31-.58,1.86,1.86,0,0,0,.73-1.54,1.61,1.61,0,0,0-.21-.82,1.88,1.88,0,0,0-.65-.59,6,6,0,0,0-1.1-.51c-.44-.17-1-.34-1.57-.54a14.21,14.21,0,0,1-1.49-.55,4,4,0,0,1-1-.65,2.16,2.16,0,0,1-.61-.84,3,3,0,0,1-.19-1.14,2.66,2.66,0,0,1,1-2.07,3.5,3.5,0,0,1,1.17-.61A5.14,5.14,0,0,1,310.08,386.87Z" transform="translate(-102.21 -308.37)"/><path class="cls-1" d="M319.53,389.78a4,4,0,0,1,1.53.28,3.18,3.18,0,0,1,1.11.78,3.4,3.4,0,0,1,.68,1.17,5.65,5.65,0,0,1,.27,1.45v.31c0,.12,0,.24,0,.37s0,.26,0,.38v.3a5.72,5.72,0,0,1-.27,1.46,3.4,3.4,0,0,1-.68,1.17,3.16,3.16,0,0,1-1.11.77,3.83,3.83,0,0,1-1.53.28,3.92,3.92,0,0,1-1.54-.28,3,3,0,0,1-1.1-.77,3.42,3.42,0,0,1-.69-1.17,4.66,4.66,0,0,1-.26-1.46c0-.07,0-.17,0-.3v-.75c0-.12,0-.22,0-.31a4.6,4.6,0,0,1,.26-1.45,3.42,3.42,0,0,1,.69-1.17,3.05,3.05,0,0,1,1.1-.78A4.11,4.11,0,0,1,319.53,389.78Zm2.6,3.77a3,3,0,0,0-.76-2.11,2.71,2.71,0,0,0-3.68,0,3,3,0,0,0-.76,2.11c0,.16,0,.36,0,.59s0,.44,0,.6a3,3,0,0,0,.76,2.11,2.71,2.71,0,0,0,3.68,0,3,3,0,0,0,.76-2.11c0-.16,0-.36,0-.6S322.14,393.71,322.13,393.55Z" transform="translate(-102.21 -308.37)"/><path class="cls-1" d="M327,389.94h2.13a.32.32,0,0,1,.36.36v.22a.32.32,0,0,1-.36.36H327V398a.32.32,0,0,1-.36.35h-.27A.32.32,0,0,1,326,398v-7.11h-1.44a.32.32,0,0,1-.35-.36v-.22a.32.32,0,0,1,.35-.36H326V389a4.9,4.9,0,0,1,.11-1,2,2,0,0,1,.38-.84,1.94,1.94,0,0,1,.74-.56,3,3,0,0,1,1.21-.21h.84a.32.32,0,0,1,.36.35V387a.32.32,0,0,1-.36.36h-.84a1.26,1.26,0,0,0-1.15.46,2.37,2.37,0,0,0-.3,1.31Z" transform="translate(-102.21 -308.37)"/><path class="cls-1" d="M332.66,395.58a2.65,2.65,0,0,0,.29,1.35,1.06,1.06,0,0,0,1,.48h.87a.31.31,0,0,1,.35.35V398a.31.31,0,0,1-.35.35h-1a2.34,2.34,0,0,1-1.05-.21,1.67,1.67,0,0,1-.68-.57,2.3,2.3,0,0,1-.36-.86,5,5,0,0,1-.1-1.05v-4.77h-1.26a.32.32,0,0,1-.36-.36v-.22a.32.32,0,0,1,.36-.36h1.26v-2.71c0-.24.11-.36.35-.36h.28a.32.32,0,0,1,.35.36v2.71h2a.32.32,0,0,1,.35.36v.22a.32.32,0,0,1-.35.36h-2Z" transform="translate(-102.21 -308.37)"/><path class="cls-1" d="M344.6,396.91l2-6.72a.32.32,0,0,1,.1-.16.35.35,0,0,1,.25-.09h.31a.34.34,0,0,1,.23.1.32.32,0,0,1,.09.23.55.55,0,0,1,0,.17l-2.28,7.5a.82.82,0,0,1-.18.31.5.5,0,0,1-.33.09h-.28a.51.51,0,0,1-.55-.4l-2-6.37-2,6.37a.51.51,0,0,1-.55.4H339a.5.5,0,0,1-.33-.09.82.82,0,0,1-.19-.31l-2.28-7.5a.55.55,0,0,1,0-.17.29.29,0,0,1,.1-.23.32.32,0,0,1,.22-.1h.31a.33.33,0,0,1,.25.09.46.46,0,0,1,.11.16l2,6.72,2.12-6.64a.48.48,0,0,1,.13-.21.36.36,0,0,1,.31-.12h.32a.39.39,0,0,1,.31.12.57.57,0,0,1,.12.21Z" transform="translate(-102.21 -308.37)"/><path class="cls-1" d="M354.79,398.34a.31.31,0,0,1-.35-.35v-.76a2.52,2.52,0,0,1-.38.45,2.42,2.42,0,0,1-.57.4,3.81,3.81,0,0,1-.81.3,4.46,4.46,0,0,1-1.1.12,3.4,3.4,0,0,1-1.11-.18,2.94,2.94,0,0,1-.92-.51,2.69,2.69,0,0,1-.63-.76,2.05,2.05,0,0,1-.23-.95,2.13,2.13,0,0,1,.23-1,2.66,2.66,0,0,1,.66-.77,3.46,3.46,0,0,1,1-.54,6,6,0,0,1,1.3-.32l2.55-.36v-.56a1.78,1.78,0,0,0-.53-1.36,2.41,2.41,0,0,0-1.67-.48,2.36,2.36,0,0,0-1.4.35,1.58,1.58,0,0,0-.62.75.52.52,0,0,1-.15.26.36.36,0,0,1-.24.08h-.22a.38.38,0,0,1-.36-.36,1.42,1.42,0,0,1,.17-.57,2.15,2.15,0,0,1,.52-.66,3.18,3.18,0,0,1,.93-.55,3.5,3.5,0,0,1,1.37-.24,4.21,4.21,0,0,1,1.58.26,2.54,2.54,0,0,1,1,.67,2.27,2.27,0,0,1,.5.91,3.85,3.85,0,0,1,.13,1V398a.31.31,0,0,1-.35.35Zm-3.05-.77a2.75,2.75,0,0,0,1-.19,2.37,2.37,0,0,0,.87-.56,2.5,2.5,0,0,0,.58-.93,3.83,3.83,0,0,0,.21-1.33V394l-2.08.29c-1.79.25-2.69.82-2.69,1.72a1.27,1.27,0,0,0,.19.69,1.5,1.5,0,0,0,.48.49,2,2,0,0,0,.66.28A3.12,3.12,0,0,0,351.74,397.57Z" transform="translate(-102.21 -308.37)"/><path class="cls-1" d="M361.16,389.94h.6a.32.32,0,0,1,.35.36v.22a.32.32,0,0,1-.35.36h-.7a2.1,2.1,0,0,0-1.53.56A2.08,2.08,0,0,0,359,393v5a.34.34,0,0,1-.1.26.4.4,0,0,1-.27.09h-.26A.31.31,0,0,1,358,398v-7.68a.39.39,0,0,1,.09-.26.36.36,0,0,1,.26-.11h.26a.37.37,0,0,1,.27.11.35.35,0,0,1,.1.26v.75A2.24,2.24,0,0,1,361.16,389.94Z" transform="translate(-102.21 -308.37)"/><path class="cls-1" d="M363,393.5a5.06,5.06,0,0,1,.33-1.51,3.57,3.57,0,0,1,.71-1.18,3,3,0,0,1,1.07-.75,3.43,3.43,0,0,1,1.42-.28,3.28,3.28,0,0,1,2.64,1.11,4.62,4.62,0,0,1,.93,3.06v.24a.33.33,0,0,1-.1.26.41.41,0,0,1-.27.1H364v.16a3.49,3.49,0,0,0,.2,1.06,3.41,3.41,0,0,0,.51.92,2.75,2.75,0,0,0,.79.64,2.31,2.31,0,0,0,1,.24,2.77,2.77,0,0,0,.91-.13,3.41,3.41,0,0,0,.66-.3,2.05,2.05,0,0,0,.44-.35,2.1,2.1,0,0,0,.24-.27c.1-.14.17-.23.23-.25a.51.51,0,0,1,.25,0h.26a.37.37,0,0,1,.25.09.24.24,0,0,1,.09.23,1.22,1.22,0,0,1-.25.57,2.89,2.89,0,0,1-.66.64,4,4,0,0,1-2.42.74,3.53,3.53,0,0,1-1.4-.26,3.07,3.07,0,0,1-1.08-.76,3.44,3.44,0,0,1-.72-1.18,5.13,5.13,0,0,1-.33-1.51,5.94,5.94,0,0,1,0-.65A5.74,5.74,0,0,1,363,393.5Zm1,.14h5.14v-.06a3.48,3.48,0,0,0-.18-1.13,2.79,2.79,0,0,0-.51-.91,2.2,2.2,0,0,0-.81-.6,2.59,2.59,0,0,0-1.09-.22,2.45,2.45,0,0,0-1.08.22,2.25,2.25,0,0,0-.8.6,2.6,2.6,0,0,0-.5.91,3.77,3.77,0,0,0-.17,1.13Z" transform="translate(-102.21 -308.37)"/><path class="cls-1" d="M382.86,387a.34.34,0,0,1,.37.38v.24c0,.24-.13.35-.37.35h-3.19v10c0,.23-.12.35-.37.35H379a.31.31,0,0,1-.35-.35V388h-3.2c-.24,0-.36-.11-.36-.35v-.24c0-.25.12-.38.36-.38Z" transform="translate(-102.21 -308.37)"/><path class="cls-1" d="M386.64,389.94h.59a.32.32,0,0,1,.36.36v.22a.32.32,0,0,1-.36.36h-.69a1.94,1.94,0,0,0-2.1,2.1v5a.35.35,0,0,1-.11.26.37.37,0,0,1-.26.09h-.26a.32.32,0,0,1-.36-.35v-7.68a.4.4,0,0,1,.1-.26.35.35,0,0,1,.26-.11h.26a.35.35,0,0,1,.26.11.36.36,0,0,1,.11.26v.75A2.24,2.24,0,0,1,386.64,389.94Z" transform="translate(-102.21 -308.37)"/><path class="cls-1" d="M394.42,398.34a.31.31,0,0,1-.35-.35v-.76a3,3,0,0,1-.38.45,2.29,2.29,0,0,1-.58.4,3.52,3.52,0,0,1-.8.3,4.52,4.52,0,0,1-1.1.12,3.4,3.4,0,0,1-1.11-.18,2.84,2.84,0,0,1-.92-.51,2.69,2.69,0,0,1-.63-.76,1.94,1.94,0,0,1-.23-.95,2,2,0,0,1,.23-1,2.51,2.51,0,0,1,.66-.77,3.4,3.4,0,0,1,1-.54,6.34,6.34,0,0,1,1.3-.32l2.56-.36v-.56a1.78,1.78,0,0,0-.53-1.36,2.43,2.43,0,0,0-1.67-.48,2.36,2.36,0,0,0-1.4.35,1.53,1.53,0,0,0-.62.75.52.52,0,0,1-.15.26.36.36,0,0,1-.24.08h-.22a.38.38,0,0,1-.36-.36,1.55,1.55,0,0,1,.16-.57,2.36,2.36,0,0,1,.53-.66,3.18,3.18,0,0,1,.93-.55,3.47,3.47,0,0,1,1.37-.24,4.21,4.21,0,0,1,1.58.26,2.54,2.54,0,0,1,1,.67,2.4,2.4,0,0,1,.5.91,3.85,3.85,0,0,1,.13,1V398a.31.31,0,0,1-.35.35Zm-3.05-.77a2.78,2.78,0,0,0,1-.19,2.37,2.37,0,0,0,.87-.56,2.63,2.63,0,0,0,.58-.93,3.83,3.83,0,0,0,.21-1.33V394l-2.09.29c-1.78.25-2.68.82-2.68,1.72a1.19,1.19,0,0,0,.19.69,1.57,1.57,0,0,0,.47.49,2.11,2.11,0,0,0,.67.28A3.06,3.06,0,0,0,391.37,397.57Z" transform="translate(-102.21 -308.37)"/><path class="cls-1" d="M404.6,398a.31.31,0,0,1-.35.35H404a.31.31,0,0,1-.35-.35v-4.51a3,3,0,0,0-.63-2,2.3,2.3,0,0,0-1.85-.73,2.45,2.45,0,0,0-1.85.72,2.82,2.82,0,0,0-.7,2V398a.31.31,0,0,1-.35.35H398a.31.31,0,0,1-.35-.35V390.3c0-.24.11-.36.35-.36h.28a.32.32,0,0,1,.35.36v.76a3.42,3.42,0,0,1,1.05-.92,3.27,3.27,0,0,1,1.66-.36,3.4,3.4,0,0,1,1.44.28,2.89,2.89,0,0,1,1,.75,3.44,3.44,0,0,1,.62,1.15,4.73,4.73,0,0,1,.21,1.44Z" transform="translate(-102.21 -308.37)"/><path class="cls-1" d="M412,396.1a1,1,0,0,0-.14-.57,1.21,1.21,0,0,0-.45-.41,3.83,3.83,0,0,0-.84-.34l-1.28-.33a6.42,6.42,0,0,1-1.26-.41,2.43,2.43,0,0,1-.76-.54,1.49,1.49,0,0,1-.37-.64,2.55,2.55,0,0,1-.1-.74,2.12,2.12,0,0,1,.18-.84,2.17,2.17,0,0,1,.54-.75,2.84,2.84,0,0,1,.9-.54,3.52,3.52,0,0,1,1.27-.21,3.83,3.83,0,0,1,1.35.21,3.24,3.24,0,0,1,.91.5,2.17,2.17,0,0,1,.53.59,1.31,1.31,0,0,1,.18.48.28.28,0,0,1-.09.26.41.41,0,0,1-.26.09h-.24a.41.41,0,0,1-.36-.21l-.27-.37a1.32,1.32,0,0,0-.38-.31,1.86,1.86,0,0,0-.55-.22,3.79,3.79,0,0,0-.82-.08,2.25,2.25,0,0,0-1.44.39,1.27,1.27,0,0,0-.46,1,1.22,1.22,0,0,0,.09.49,1,1,0,0,0,.37.39,3.2,3.2,0,0,0,.76.35,12.14,12.14,0,0,0,1.25.34,8.11,8.11,0,0,1,1.3.4,3.28,3.28,0,0,1,.84.52,1.77,1.77,0,0,1,.45.66,2.45,2.45,0,0,1,.14.83,2.1,2.1,0,0,1-.21.92,2.27,2.27,0,0,1-.62.77,3,3,0,0,1-1,.52,4.49,4.49,0,0,1-1.39.19,4.14,4.14,0,0,1-1.45-.22,3.82,3.82,0,0,1-1-.53,2.32,2.32,0,0,1-.57-.63,1.44,1.44,0,0,1-.2-.47.27.27,0,0,1,.11-.27.45.45,0,0,1,.24-.09h.25a.38.38,0,0,1,.16,0,.73.73,0,0,1,.19.18,3.21,3.21,0,0,0,.34.41,1.74,1.74,0,0,0,.46.33,2.67,2.67,0,0,0,.62.24,3.49,3.49,0,0,0,.84.09,3.18,3.18,0,0,0,1.6-.37A1.21,1.21,0,0,0,412,396.1Z" transform="translate(-102.21 -308.37)"/><path class="cls-1" d="M420.56,398.34a.31.31,0,0,1-.35-.35v-.76a3,3,0,0,1-.38.45,2.29,2.29,0,0,1-.58.4,3.52,3.52,0,0,1-.8.3,4.52,4.52,0,0,1-1.1.12,3.4,3.4,0,0,1-1.11-.18,2.84,2.84,0,0,1-.92-.51,2.4,2.4,0,0,1-.63-.76,1.94,1.94,0,0,1-.23-.95,2,2,0,0,1,.23-1,2.48,2.48,0,0,1,.65-.77,3.59,3.59,0,0,1,1-.54,6.34,6.34,0,0,1,1.3-.32l2.56-.36v-.56a1.78,1.78,0,0,0-.53-1.36,2.43,2.43,0,0,0-1.67-.48,2.36,2.36,0,0,0-1.4.35,1.53,1.53,0,0,0-.62.75.52.52,0,0,1-.15.26.36.36,0,0,1-.24.08h-.22a.38.38,0,0,1-.26-.11.33.33,0,0,1-.1-.25,1.38,1.38,0,0,1,.16-.57,2.2,2.2,0,0,1,.53-.66,3.18,3.18,0,0,1,.93-.55,3.47,3.47,0,0,1,1.37-.24,4.15,4.15,0,0,1,1.57.26,2.58,2.58,0,0,1,1,.67,2.25,2.25,0,0,1,.49.91,3.48,3.48,0,0,1,.14,1V398a.31.31,0,0,1-.35.35Zm-3.05-.77a2.82,2.82,0,0,0,1-.19,2.25,2.25,0,0,0,.86-.56,2.52,2.52,0,0,0,.59-.93,3.83,3.83,0,0,0,.21-1.33V394l-2.09.29c-1.79.25-2.68.82-2.68,1.72a1.19,1.19,0,0,0,.19.69,1.57,1.57,0,0,0,.47.49,2.15,2.15,0,0,0,.66.28A3.2,3.2,0,0,0,417.51,397.57Z" transform="translate(-102.21 -308.37)"/><path class="cls-1" d="M424.34,393.58c0,.16,0,.35,0,.56s0,.41,0,.57a3,3,0,0,0,.77,2.19,2.59,2.59,0,0,0,1.82.67,2.61,2.61,0,0,0,1.44-.37,2.35,2.35,0,0,0,.93-1.28,1,1,0,0,1,.15-.27.3.3,0,0,1,.24-.07h.23a.35.35,0,0,1,.25.1.27.27,0,0,1,.1.26,2.24,2.24,0,0,1-.22.88,2.54,2.54,0,0,1-.61.84,3.16,3.16,0,0,1-1,.61,4.15,4.15,0,0,1-1.48.23,3.37,3.37,0,0,1-2.62-1,4.08,4.08,0,0,1-.95-2.73c0-.16,0-.38,0-.65s0-.48,0-.64a4,4,0,0,1,.95-2.73,3.37,3.37,0,0,1,2.62-1,4.14,4.14,0,0,1,1.48.24,3.16,3.16,0,0,1,1,.61,2.51,2.51,0,0,1,.61.83,2.28,2.28,0,0,1,.22.89.28.28,0,0,1-.1.26.39.39,0,0,1-.25.1h-.23a.3.3,0,0,1-.24-.08.93.93,0,0,1-.15-.26,2.34,2.34,0,0,0-.93-1.29,2.7,2.7,0,0,0-1.44-.36,2.54,2.54,0,0,0-1.82.67A3,3,0,0,0,424.34,393.58Z" transform="translate(-102.21 -308.37)"/><path class="cls-1" d="M434,395.58a2.66,2.66,0,0,0,.28,1.35,1.08,1.08,0,0,0,1,.48h.87a.32.32,0,0,1,.36.35V398a.32.32,0,0,1-.36.35h-.95a2.41,2.41,0,0,1-1.06-.21,1.81,1.81,0,0,1-.68-.57,2.47,2.47,0,0,1-.35-.86,5,5,0,0,1-.11-1.05v-4.77h-1.26a.32.32,0,0,1-.35-.36v-.22a.32.32,0,0,1,.35-.36H433v-2.71a.32.32,0,0,1,.36-.36h.27a.32.32,0,0,1,.36.36v2.71h2a.32.32,0,0,1,.36.36v.22a.32.32,0,0,1-.36.36h-2Z" transform="translate(-102.21 -308.37)"/><path class="cls-1" d="M439.37,387.86a.35.35,0,0,1-.11.26.39.39,0,0,1-.26.09h-.62a.3.3,0,0,1-.35-.35v-.62a.39.39,0,0,1,.09-.26.35.35,0,0,1,.26-.11H439a.38.38,0,0,1,.37.37ZM439.19,398a.32.32,0,0,1-.36.35h-.27a.32.32,0,0,1-.36-.35V390.3a.32.32,0,0,1,.36-.36h.27a.32.32,0,0,1,.36.36Z" transform="translate(-102.21 -308.37)"/><path class="cls-1" d="M445,389.78a4,4,0,0,1,1.54.28,3.18,3.18,0,0,1,1.11.78,3.38,3.38,0,0,1,.67,1.17,4.91,4.91,0,0,1,.27,1.45c0,.09,0,.19,0,.31s0,.24,0,.37,0,.26,0,.38,0,.23,0,.3a5,5,0,0,1-.27,1.46,3.38,3.38,0,0,1-.67,1.17,3.16,3.16,0,0,1-1.11.77,4.35,4.35,0,0,1-3.07,0,3.16,3.16,0,0,1-1.11-.77,3.57,3.57,0,0,1-.68-1.17,4.39,4.39,0,0,1-.26-1.46c0-.07,0-.17,0-.3s0-.25,0-.38,0-.25,0-.37,0-.22,0-.31a4.33,4.33,0,0,1,.26-1.45,3.57,3.57,0,0,1,.68-1.17,3.18,3.18,0,0,1,1.11-.78A4,4,0,0,1,445,389.78Zm2.61,3.77a3.09,3.09,0,0,0-.76-2.11,2.72,2.72,0,0,0-3.69,0,3.09,3.09,0,0,0-.76,2.11c0,.16,0,.36,0,.59s0,.44,0,.6a3.09,3.09,0,0,0,.76,2.11,2.72,2.72,0,0,0,3.69,0,3.09,3.09,0,0,0,.76-2.11c0-.16,0-.36,0-.6S447.62,393.71,447.61,393.55Z" transform="translate(-102.21 -308.37)"/><path class="cls-1" d="M457.81,398a.31.31,0,0,1-.35.35h-.28a.31.31,0,0,1-.35-.35v-4.51a3,3,0,0,0-.63-2,2.28,2.28,0,0,0-1.84-.73,2.46,2.46,0,0,0-1.86.72,2.87,2.87,0,0,0-.7,2V398a.31.31,0,0,1-.35.35h-.28a.31.31,0,0,1-.35-.35V390.3a.32.32,0,0,1,.35-.36h.28c.24,0,.35.12.35.36v.76a3.67,3.67,0,0,1,1.05-.92,3.31,3.31,0,0,1,1.67-.36,3.4,3.4,0,0,1,1.44.28,2.77,2.77,0,0,1,1,.75,3.28,3.28,0,0,1,.62,1.15,4.73,4.73,0,0,1,.21,1.44Z" transform="translate(-102.21 -308.37)"/><path class="cls-1" d="M465.83,398.34a.32.32,0,0,1-.36-.35v-.76a2.17,2.17,0,0,1-.38.45,2.06,2.06,0,0,1-.57.4,3.81,3.81,0,0,1-.81.3,4.46,4.46,0,0,1-1.1.12,3.38,3.38,0,0,1-1.1-.18,2.84,2.84,0,0,1-.92-.51,2.4,2.4,0,0,1-.63-.76,1.94,1.94,0,0,1-.24-.95,2,2,0,0,1,.24-1,2.48,2.48,0,0,1,.65-.77,3.59,3.59,0,0,1,1-.54,6.18,6.18,0,0,1,1.3-.32l2.55-.36v-.56a1.77,1.77,0,0,0-.52-1.36,2.43,2.43,0,0,0-1.67-.48,2.34,2.34,0,0,0-1.4.35,1.47,1.47,0,0,0-.62.75.61.61,0,0,1-.16.26.34.34,0,0,1-.23.08h-.23a.34.34,0,0,1-.25-.11.33.33,0,0,1-.1-.25,1.38,1.38,0,0,1,.16-.57,2.31,2.31,0,0,1,.52-.66,3.46,3.46,0,0,1,.93-.55,3.55,3.55,0,0,1,1.38-.24,4.15,4.15,0,0,1,1.57.26,2.58,2.58,0,0,1,1,.67,2.38,2.38,0,0,1,.49.91,3.87,3.87,0,0,1,.14,1V398a.32.32,0,0,1-.36.35Zm-3.06-.77a2.84,2.84,0,0,0,1.05-.19,2.33,2.33,0,0,0,.86-.56,2.5,2.5,0,0,0,.58-.93,3.83,3.83,0,0,0,.21-1.33V394l-2.08.29c-1.79.25-2.68.82-2.68,1.72a1.27,1.27,0,0,0,.18.69,1.72,1.72,0,0,0,.48.49,2,2,0,0,0,.66.28A3.18,3.18,0,0,0,462.77,397.57Z" transform="translate(-102.21 -308.37)"/><path class="cls-1" d="M470,398a.31.31,0,0,1-.35.35h-.28A.31.31,0,0,1,469,398V387.23c0-.24.11-.36.35-.36h.28a.32.32,0,0,1,.35.36Z" transform="translate(-102.21 -308.37)"/><path class="cls-1" d="M232.2,413.63a.53.53,0,0,1-.51-.32l-3.08-6.08V416a.32.32,0,0,1-.36.35H228c-.25,0-.37-.12-.37-.35V405.41A.32.32,0,0,1,228,405h.41a.28.28,0,0,1,.23.08l.11.12,3.66,7.14,3.69-7.14.1-.12a.29.29,0,0,1,.24-.08h.38a.32.32,0,0,1,.37.37V416c0,.23-.12.35-.37.35h-.29a.31.31,0,0,1-.35-.35v-8.76l-3.09,6.08a.51.51,0,0,1-.5.32Z" transform="translate(-102.21 -308.37)"/><path class="cls-1" d="M239.56,411.5a5.06,5.06,0,0,1,.33-1.51,4,4,0,0,1,.71-1.18,3.18,3.18,0,0,1,1.08-.75,3.4,3.4,0,0,1,1.42-.28,3.25,3.25,0,0,1,2.63,1.11,4.55,4.55,0,0,1,.94,3.06v.24a.35.35,0,0,1-.11.26.38.38,0,0,1-.26.1h-5.75v.16a3.21,3.21,0,0,0,.2,1.06,2.94,2.94,0,0,0,.51.92,2.62,2.62,0,0,0,.79.64,2.26,2.26,0,0,0,1,.24,2.71,2.71,0,0,0,.9-.13,3.83,3.83,0,0,0,.67-.3,2.05,2.05,0,0,0,.44-.35,2.81,2.81,0,0,0,.23-.27.81.81,0,0,1,.23-.25.56.56,0,0,1,.26,0h.26a.38.38,0,0,1,.25.09.24.24,0,0,1,.09.23,1.33,1.33,0,0,1-.25.57,2.75,2.75,0,0,1-.67.64,4,4,0,0,1-1,.53,4.19,4.19,0,0,1-1.37.21,3.54,3.54,0,0,1-1.41-.26,3.07,3.07,0,0,1-1.08-.76,3.77,3.77,0,0,1-.72-1.18,5.13,5.13,0,0,1-.33-1.51c0-.16,0-.38,0-.65S239.55,411.66,239.56,411.5Zm1,.14h5.13v-.06a3.65,3.65,0,0,0-.17-1.12,2.84,2.84,0,0,0-.51-.92,2.24,2.24,0,0,0-.82-.6,2.51,2.51,0,0,0-1.08-.22,2.45,2.45,0,0,0-1.08.22,2.17,2.17,0,0,0-.8.6,2.64,2.64,0,0,0-.5.92,3.37,3.37,0,0,0-.17,1.12Z" transform="translate(-102.21 -308.37)"/><path class="cls-1" d="M249.79,408.86a3,3,0,0,1,1-.8,3.08,3.08,0,0,1,1.36-.28,3,3,0,0,1,1.57.39,2.59,2.59,0,0,1,1,1.13,2.83,2.83,0,0,1,1.09-1.11,3.32,3.32,0,0,1,1.66-.41,3.08,3.08,0,0,1,1.19.23,2.66,2.66,0,0,1,1,.66,3.14,3.14,0,0,1,.64,1.09,4.73,4.73,0,0,1,.23,1.53V416a.32.32,0,0,1-.36.35h-.27a.32.32,0,0,1-.36-.35v-4.54a4.15,4.15,0,0,0-.17-1.32,2.15,2.15,0,0,0-.49-.84,1.63,1.63,0,0,0-.7-.44,2.53,2.53,0,0,0-.83-.13,2.19,2.19,0,0,0-.75.13,1.69,1.69,0,0,0-.7.44,2.3,2.3,0,0,0-.51.84,3.84,3.84,0,0,0-.19,1.32V416a.32.32,0,0,1-.36.35h-.27a.32.32,0,0,1-.36-.35v-4.54a3.84,3.84,0,0,0-.19-1.32,2.43,2.43,0,0,0-.5-.84,1.69,1.69,0,0,0-.7-.44,2.48,2.48,0,0,0-.8-.13,2.19,2.19,0,0,0-.75.13,1.69,1.69,0,0,0-.7.44,2.34,2.34,0,0,0-.51.83,3.78,3.78,0,0,0-.19,1.31V416a.32.32,0,0,1-.36.35h-.27a.32.32,0,0,1-.36-.35V408.3a.32.32,0,0,1,.36-.36h.27a.32.32,0,0,1,.36.36Z" transform="translate(-102.21 -308.37)"/><path class="cls-1" d="M266.18,407.78a4,4,0,0,1,1.54.28,3.18,3.18,0,0,1,1.11.78,3.38,3.38,0,0,1,.67,1.17,4.91,4.91,0,0,1,.27,1.45c0,.09,0,.19,0,.31s0,.24,0,.37,0,.26,0,.38,0,.23,0,.3a5,5,0,0,1-.27,1.46,3.38,3.38,0,0,1-.67,1.17,3.16,3.16,0,0,1-1.11.77,4.35,4.35,0,0,1-3.07,0,3.16,3.16,0,0,1-1.11-.77,3.57,3.57,0,0,1-.68-1.17,4.66,4.66,0,0,1-.26-1.46c0-.07,0-.17,0-.3s0-.25,0-.38,0-.25,0-.37,0-.22,0-.31a4.6,4.6,0,0,1,.26-1.45,3.57,3.57,0,0,1,.68-1.17,3.18,3.18,0,0,1,1.11-.78A4,4,0,0,1,266.18,407.78Zm2.61,3.76a3.08,3.08,0,0,0-.76-2.1,2.72,2.72,0,0,0-3.69,0,3.08,3.08,0,0,0-.76,2.1c0,.17,0,.37,0,.6s0,.44,0,.6a3.09,3.09,0,0,0,.76,2.11,2.72,2.72,0,0,0,3.69,0,3.09,3.09,0,0,0,.76-2.11c0-.16,0-.36,0-.6S268.8,411.71,268.79,411.54Z" transform="translate(-102.21 -308.37)"/><path class="cls-1" d="M275.18,407.94h.6a.32.32,0,0,1,.36.36v.22a.32.32,0,0,1-.36.36h-.69a2.08,2.08,0,0,0-1.54.57A2,2,0,0,0,273,411v5a.35.35,0,0,1-.11.26.39.39,0,0,1-.26.09h-.26A.32.32,0,0,1,272,416v-7.68a.35.35,0,0,1,.1-.26.33.33,0,0,1,.26-.11h.26a.38.38,0,0,1,.37.37v.75A2.23,2.23,0,0,1,275.18,407.94Z" transform="translate(-102.21 -308.37)"/><path class="cls-1" d="M279.74,419.17a.7.7,0,0,1-.13.17.33.33,0,0,1-.24.07H279a.31.31,0,0,1-.22-.09.3.3,0,0,1-.1-.23,1,1,0,0,1,.1-.32l1.24-2.91L277,408.59a1,1,0,0,1-.1-.32.29.29,0,0,1,.1-.23.28.28,0,0,1,.22-.1h.34a.33.33,0,0,1,.24.08.37.37,0,0,1,.13.17l2.72,6.39,2.78-6.39a.37.37,0,0,1,.13-.17.33.33,0,0,1,.24-.08h.32a.3.3,0,0,1,.23.1.32.32,0,0,1,.09.23,1.22,1.22,0,0,1-.09.32Z" transform="translate(-102.21 -308.37)"/><path class="cls-1" d="M291.4,407.94h2.14a.32.32,0,0,1,.35.36v.22a.32.32,0,0,1-.35.36H291.4V416a.31.31,0,0,1-.35.35h-.28a.31.31,0,0,1-.35-.35v-7.11H289a.32.32,0,0,1-.36-.36v-.22a.32.32,0,0,1,.36-.36h1.44V407a4.9,4.9,0,0,1,.1-1,2.15,2.15,0,0,1,.38-.84,1.9,1.9,0,0,1,.75-.56,3,3,0,0,1,1.21-.21h.84a.31.31,0,0,1,.35.35V405a.32.32,0,0,1-.35.36h-.84a1.28,1.28,0,0,0-1.16.46,2.37,2.37,0,0,0-.3,1.31Z" transform="translate(-102.21 -308.37)"/><path class="cls-1" d="M298.46,407.78a4.07,4.07,0,0,1,1.54.28,3.05,3.05,0,0,1,1.1.78,3.25,3.25,0,0,1,.68,1.17,4.91,4.91,0,0,1,.27,1.45c0,.09,0,.19,0,.31v.75c0,.13,0,.23,0,.3a5,5,0,0,1-.27,1.46,3.25,3.25,0,0,1-.68,1.17,3,3,0,0,1-1.1.77,3.88,3.88,0,0,1-1.54.28,3.83,3.83,0,0,1-1.53-.28,3.16,3.16,0,0,1-1.11-.77,3.59,3.59,0,0,1-.69-1.17,4.66,4.66,0,0,1-.25-1.46c0-.07,0-.17,0-.3s0-.25,0-.38,0-.25,0-.37,0-.22,0-.31a4.6,4.6,0,0,1,.25-1.45,3.59,3.59,0,0,1,.69-1.17,3.18,3.18,0,0,1,1.11-.78A4,4,0,0,1,298.46,407.78Zm2.6,3.76a3,3,0,0,0-.76-2.1,2.71,2.71,0,0,0-3.68,0,3,3,0,0,0-.76,2.1c0,.17,0,.37,0,.6s0,.44,0,.6a3,3,0,0,0,.76,2.11,2.71,2.71,0,0,0,3.68,0,3,3,0,0,0,.76-2.11c0-.16,0-.36,0-.6S301.07,411.71,301.06,411.54Z" transform="translate(-102.21 -308.37)"/><path class="cls-1" d="M307.46,407.94h.6a.32.32,0,0,1,.35.36v.22a.32.32,0,0,1-.35.36h-.7a2.07,2.07,0,0,0-1.53.57,2,2,0,0,0-.57,1.53v5a.34.34,0,0,1-.1.26.4.4,0,0,1-.27.09h-.26a.31.31,0,0,1-.35-.35v-7.68a.35.35,0,0,1,.1-.26.33.33,0,0,1,.25-.11h.26a.37.37,0,0,1,.27.11.35.35,0,0,1,.1.26v.75A2.24,2.24,0,0,1,307.46,407.94Z" transform="translate(-102.21 -308.37)"/><path class="cls-1" d="M318,405a4.22,4.22,0,0,1,2.71.8,3,3,0,0,1,1,2.46,3.16,3.16,0,0,1-.64,2.07,3.25,3.25,0,0,1-1.8,1.05l2.6,4.42a.49.49,0,0,1,.05.18.34.34,0,0,1-.1.23.33.33,0,0,1-.23.09h-.19a.52.52,0,0,1-.4-.13,1.46,1.46,0,0,1-.22-.3l-2.56-4.35h-3.33V416a.32.32,0,0,1-.37.35h-.29a.32.32,0,0,1-.36-.35V405.41a.32.32,0,0,1,.36-.37Zm-3.1,5.55h3c1.85,0,2.78-.76,2.78-2.29s-.93-2.3-2.78-2.3h-3Z" transform="translate(-102.21 -308.37)"/><path class="cls-1" d="M323.5,411.5a5.77,5.77,0,0,1,.33-1.51,4,4,0,0,1,.71-1.18,3.18,3.18,0,0,1,1.08-.75,3.4,3.4,0,0,1,1.42-.28,3.25,3.25,0,0,1,2.63,1.11,4.55,4.55,0,0,1,.94,3.06v.24a.34.34,0,0,1-.1.26.41.41,0,0,1-.27.1h-5.75v.16a3.49,3.49,0,0,0,.2,1.06,2.94,2.94,0,0,0,.51.92,2.62,2.62,0,0,0,.79.64,2.26,2.26,0,0,0,1.05.24,2.77,2.77,0,0,0,.91-.13,4.07,4.07,0,0,0,.66-.3,2.05,2.05,0,0,0,.44-.35,3.37,3.37,0,0,0,.24-.27.71.71,0,0,1,.22-.25.59.59,0,0,1,.26,0H330a.37.37,0,0,1,.25.09.24.24,0,0,1,.09.23,1.33,1.33,0,0,1-.25.57,2.89,2.89,0,0,1-.66.64,4.29,4.29,0,0,1-1,.53,4.19,4.19,0,0,1-1.37.21,3.49,3.49,0,0,1-1.4-.26,3,3,0,0,1-1.09-.76,3.77,3.77,0,0,1-.72-1.18,5.86,5.86,0,0,1-.33-1.51c0-.16,0-.38,0-.65S323.49,411.66,323.5,411.5Zm1,.14h5.14v-.06a3.37,3.37,0,0,0-.18-1.12,2.84,2.84,0,0,0-.51-.92,2.16,2.16,0,0,0-.82-.6,2.51,2.51,0,0,0-1.08-.22,2.45,2.45,0,0,0-1.08.22,2.25,2.25,0,0,0-.8.6,2.64,2.64,0,0,0-.5.92,3.37,3.37,0,0,0-.17,1.12Z" transform="translate(-102.21 -308.37)"/><path class="cls-1" d="M338.22,416.34a.31.31,0,0,1-.35-.35v-.76a3,3,0,0,1-.38.45,2.29,2.29,0,0,1-.58.4,3.44,3.44,0,0,1-.81.3,4.37,4.37,0,0,1-1.09.12,3.4,3.4,0,0,1-1.11-.18,2.84,2.84,0,0,1-.92-.51,2.4,2.4,0,0,1-.63-.76,1.94,1.94,0,0,1-.24-.95,2,2,0,0,1,.24-1,2.48,2.48,0,0,1,.65-.77,3.88,3.88,0,0,1,1-.55,6.34,6.34,0,0,1,1.3-.31l2.56-.36v-.56a1.78,1.78,0,0,0-.53-1.36,2.43,2.43,0,0,0-1.67-.48,2.34,2.34,0,0,0-1.4.35,1.53,1.53,0,0,0-.62.75.55.55,0,0,1-.15.26.36.36,0,0,1-.24.08H333a.36.36,0,0,1-.26-.11.33.33,0,0,1-.1-.25,1.38,1.38,0,0,1,.16-.57,2.2,2.2,0,0,1,.53-.66,3.25,3.25,0,0,1,.92-.55,3.55,3.55,0,0,1,1.38-.24,4.15,4.15,0,0,1,1.57.26,2.58,2.58,0,0,1,1,.67,2.25,2.25,0,0,1,.49.91,3.87,3.87,0,0,1,.14,1V416a.31.31,0,0,1-.35.35Zm-3.05-.77a2.82,2.82,0,0,0,1-.19,2.25,2.25,0,0,0,.86-.56,2.52,2.52,0,0,0,.59-.93,4.08,4.08,0,0,0,.21-1.33V412l-2.09.29c-1.79.25-2.68.82-2.68,1.72a1.19,1.19,0,0,0,.19.69,1.57,1.57,0,0,0,.47.49,2.15,2.15,0,0,0,.66.28A3.2,3.2,0,0,0,335.17,415.57Z" transform="translate(-102.21 -308.37)"/><path class="cls-1" d="M342.4,416a.31.31,0,0,1-.35.35h-.28a.31.31,0,0,1-.35-.35V405.23a.32.32,0,0,1,.35-.36h.28c.24,0,.35.12.35.36Z" transform="translate(-102.21 -308.37)"/><path class="cls-1" d="M345.28,412c-.24,0-.36-.11-.36-.35v-.23a.32.32,0,0,1,.36-.35H350a.32.32,0,0,1,.36.35v.23c0,.24-.12.35-.36.35Z" transform="translate(-102.21 -308.37)"/><path class="cls-1" d="M354.21,413.58a2.65,2.65,0,0,0,.29,1.35,1.07,1.07,0,0,0,1,.48h.87a.31.31,0,0,1,.35.35V416a.31.31,0,0,1-.35.35h-.95a2.38,2.38,0,0,1-1.06-.21,1.74,1.74,0,0,1-.68-.57,2.3,2.3,0,0,1-.36-.86,5,5,0,0,1-.1-1.05v-4.77H352a.32.32,0,0,1-.36-.36v-.22a.32.32,0,0,1,.36-.36h1.26v-2.71a.32.32,0,0,1,.35-.36h.28c.24,0,.35.12.35.36v2.71h2a.32.32,0,0,1,.35.36v.22a.32.32,0,0,1-.35.36h-2Z" transform="translate(-102.21 -308.37)"/><path class="cls-1" d="M359.56,405.86a.34.34,0,0,1-.1.26.4.4,0,0,1-.27.09h-.61c-.24,0-.36-.11-.36-.35v-.62a.35.35,0,0,1,.1-.26.33.33,0,0,1,.26-.11h.61a.37.37,0,0,1,.27.11.35.35,0,0,1,.1.26ZM359.38,416a.31.31,0,0,1-.35.35h-.28a.31.31,0,0,1-.35-.35V408.3a.32.32,0,0,1,.35-.36H359a.32.32,0,0,1,.35.36Z" transform="translate(-102.21 -308.37)"/><path class="cls-1" d="M363,408.86a2.81,2.81,0,0,1,.95-.8,3,3,0,0,1,1.36-.28,3,3,0,0,1,1.56.39,2.68,2.68,0,0,1,1,1.13,2.83,2.83,0,0,1,1.09-1.11,3.32,3.32,0,0,1,1.66-.41,3.08,3.08,0,0,1,1.19.23,2.66,2.66,0,0,1,1,.66,3.13,3.13,0,0,1,.63,1.09,4.47,4.47,0,0,1,.24,1.53V416a.32.32,0,0,1-.36.35H373a.32.32,0,0,1-.36-.35v-4.54a4.12,4.12,0,0,0-.18-1.32,2.13,2.13,0,0,0-.48-.84,1.69,1.69,0,0,0-.7-.44,2.59,2.59,0,0,0-.84-.13,2.28,2.28,0,0,0-.75.13,1.73,1.73,0,0,0-.69.44,2.3,2.3,0,0,0-.51.84,3.84,3.84,0,0,0-.19,1.32V416a.32.32,0,0,1-.36.35h-.27a.32.32,0,0,1-.36-.35v-4.54a3.84,3.84,0,0,0-.19-1.32,2.43,2.43,0,0,0-.5-.84,1.66,1.66,0,0,0-.71-.44,2.44,2.44,0,0,0-.8-.13,2.28,2.28,0,0,0-.75.13,1.73,1.73,0,0,0-.69.44,2.34,2.34,0,0,0-.51.83,3.78,3.78,0,0,0-.19,1.31V416a.32.32,0,0,1-.36.35h-.27A.32.32,0,0,1,362,416V408.3a.32.32,0,0,1,.36-.36h.27a.32.32,0,0,1,.36.36Z" transform="translate(-102.21 -308.37)"/><path class="cls-1" d="M375.76,411.5a5.39,5.39,0,0,1,.34-1.51,3.57,3.57,0,0,1,.71-1.18,3,3,0,0,1,1.07-.75,3.4,3.4,0,0,1,1.42-.28,3.28,3.28,0,0,1,2.64,1.11,4.6,4.6,0,0,1,.93,3.06v.24a.34.34,0,0,1-.1.26.41.41,0,0,1-.27.1h-5.75v.16a3.49,3.49,0,0,0,.2,1.06,3.41,3.41,0,0,0,.51.92,2.75,2.75,0,0,0,.79.64,2.28,2.28,0,0,0,1.05.24,2.77,2.77,0,0,0,.91-.13,3.41,3.41,0,0,0,.66-.3,2.05,2.05,0,0,0,.44-.35,3.37,3.37,0,0,0,.24-.27.71.71,0,0,1,.22-.25.59.59,0,0,1,.26,0h.26a.37.37,0,0,1,.25.09.24.24,0,0,1,.09.23,1.22,1.22,0,0,1-.25.57,2.89,2.89,0,0,1-.66.64,4.4,4.4,0,0,1-1,.53,4.25,4.25,0,0,1-1.38.21,3.53,3.53,0,0,1-1.4-.26,3.2,3.2,0,0,1-1.09-.76,3.57,3.57,0,0,1-.71-1.18,5.47,5.47,0,0,1-.34-1.51c0-.16,0-.38,0-.65S375.75,411.66,375.76,411.5Zm1,.14h5.14v-.06a3.37,3.37,0,0,0-.18-1.12,2.84,2.84,0,0,0-.51-.92,2.16,2.16,0,0,0-.82-.6,2.51,2.51,0,0,0-1.08-.22,2.45,2.45,0,0,0-1.08.22,2.25,2.25,0,0,0-.8.6,2.64,2.64,0,0,0-.5.92,3.65,3.65,0,0,0-.17,1.12Z" transform="translate(-102.21 -308.37)"/><path class="cls-1" d="M392.69,404.87a4.72,4.72,0,0,1,1.67.27,3.74,3.74,0,0,1,1.18.68,2.89,2.89,0,0,1,.71.91,2.43,2.43,0,0,1,.26,1,.38.38,0,0,1-.08.23.34.34,0,0,1-.26.09h-.33a.49.49,0,0,1-.2-.06.32.32,0,0,1-.15-.26,1.87,1.87,0,0,0-.85-1.33,3.33,3.33,0,0,0-1.95-.53,4.67,4.67,0,0,0-1.09.12,2.39,2.39,0,0,0-.86.35,1.72,1.72,0,0,0-.56.61,1.79,1.79,0,0,0-.2.86,1.67,1.67,0,0,0,.19.83,1.79,1.79,0,0,0,.59.61,5.87,5.87,0,0,0,1,.52c.41.16.91.33,1.49.51s1.13.39,1.57.58a4.7,4.7,0,0,1,1.12.63,2.25,2.25,0,0,1,.66.83,2.59,2.59,0,0,1,.22,1.13,2.68,2.68,0,0,1-1.08,2.28,4.85,4.85,0,0,1-3,.8,5.52,5.52,0,0,1-1.75-.25,4.05,4.05,0,0,1-1.28-.65,3,3,0,0,1-.81-.93,2.37,2.37,0,0,1-.3-1.07.3.3,0,0,1,.1-.23.33.33,0,0,1,.24-.1h.32a.3.3,0,0,1,.24.1.51.51,0,0,1,.12.23,1.92,1.92,0,0,0,.24.68,2,2,0,0,0,.57.63,3.5,3.5,0,0,0,.95.45,4.48,4.48,0,0,0,1.36.18,3.77,3.77,0,0,0,2.31-.58,1.86,1.86,0,0,0,.72-1.54,1.51,1.51,0,0,0-.21-.82A1.84,1.84,0,0,0,395,412a6,6,0,0,0-1.1-.51c-.44-.17-1-.34-1.57-.54a14.21,14.21,0,0,1-1.49-.55,4.31,4.31,0,0,1-1-.65,2.24,2.24,0,0,1-.6-.84,3,3,0,0,1-.2-1.14,2.63,2.63,0,0,1,1-2.07,3.59,3.59,0,0,1,1.17-.61A5.12,5.12,0,0,1,392.69,404.87Z" transform="translate(-102.21 -308.37)"/><path class="cls-1" d="M401.06,419.17a.52.52,0,0,1-.13.17.33.33,0,0,1-.24.07h-.32a.33.33,0,0,1-.23-.09.34.34,0,0,1-.1-.23,1.42,1.42,0,0,1,.1-.32l1.25-2.91-3.09-7.27a1.42,1.42,0,0,1-.1-.32.33.33,0,0,1,.1-.23.29.29,0,0,1,.23-.1h.34a.36.36,0,0,1,.24.08.45.45,0,0,1,.13.17l2.71,6.39,2.78-6.39a.37.37,0,0,1,.13-.17.33.33,0,0,1,.24-.08h.32a.29.29,0,0,1,.23.1.33.33,0,0,1,.1.23,1.42,1.42,0,0,1-.1.32Z" transform="translate(-102.21 -308.37)"/><path class="cls-1" d="M412.19,414.1a1.09,1.09,0,0,0-.13-.57,1.33,1.33,0,0,0-.46-.41,3.83,3.83,0,0,0-.84-.34c-.35-.1-.77-.21-1.28-.33a6.42,6.42,0,0,1-1.26-.41,2.56,2.56,0,0,1-.76-.54,1.49,1.49,0,0,1-.37-.64,2.55,2.55,0,0,1-.1-.74,2.12,2.12,0,0,1,.18-.84,2.17,2.17,0,0,1,.54-.75,2.78,2.78,0,0,1,.91-.54,3.47,3.47,0,0,1,1.26-.21,3.83,3.83,0,0,1,1.35.21,3.45,3.45,0,0,1,.92.5,2.29,2.29,0,0,1,.52.59,1.37,1.37,0,0,1,.19.48.31.31,0,0,1-.1.26.41.41,0,0,1-.26.09h-.24a.41.41,0,0,1-.36-.21,3.18,3.18,0,0,0-.27-.37,1.42,1.42,0,0,0-.37-.31,1.92,1.92,0,0,0-.56-.22,3.72,3.72,0,0,0-.82-.08,2.2,2.2,0,0,0-1.43.39,1.25,1.25,0,0,0-.47,1,1.22,1.22,0,0,0,.09.49,1,1,0,0,0,.38.39,2.93,2.93,0,0,0,.75.35,12.14,12.14,0,0,0,1.25.34,7.8,7.8,0,0,1,1.3.4,3.28,3.28,0,0,1,.84.52,1.69,1.69,0,0,1,.45.66,2.45,2.45,0,0,1,.14.83,2.1,2.1,0,0,1-.21.92,2.36,2.36,0,0,1-.61.77,3.1,3.1,0,0,1-1,.52,4.45,4.45,0,0,1-1.39.19,4.14,4.14,0,0,1-1.45-.22,3.59,3.59,0,0,1-1-.53,2.56,2.56,0,0,1-.58-.63,1.44,1.44,0,0,1-.2-.47.29.29,0,0,1,.11-.27.45.45,0,0,1,.24-.09h.25a.47.47,0,0,1,.17,0,.6.6,0,0,1,.18.18,3.21,3.21,0,0,0,.34.41,1.74,1.74,0,0,0,.46.33,2.67,2.67,0,0,0,.62.24,3.49,3.49,0,0,0,.84.09,3.18,3.18,0,0,0,1.6-.37A1.21,1.21,0,0,0,412.19,414.1Z" transform="translate(-102.21 -308.37)"/><path class="cls-1" d="M416.86,413.58a2.65,2.65,0,0,0,.29,1.35,1.06,1.06,0,0,0,1,.48H419a.31.31,0,0,1,.35.35V416a.31.31,0,0,1-.35.35h-1a2.34,2.34,0,0,1-1.05-.21,1.67,1.67,0,0,1-.68-.57,2.3,2.3,0,0,1-.36-.86,5,5,0,0,1-.1-1.05v-4.77h-1.26a.32.32,0,0,1-.36-.36v-.22a.32.32,0,0,1,.36-.36h1.26v-2.71a.32.32,0,0,1,.35-.36h.28a.32.32,0,0,1,.35.36v2.71h2a.32.32,0,0,1,.35.36v.22a.32.32,0,0,1-.35.36h-2Z" transform="translate(-102.21 -308.37)"/><path class="cls-1" d="M420.63,411.5A5.06,5.06,0,0,1,421,410a3.57,3.57,0,0,1,.71-1.18,3,3,0,0,1,1.07-.75,3.43,3.43,0,0,1,1.42-.28,3.28,3.28,0,0,1,2.64,1.11,4.6,4.6,0,0,1,.93,3.06v.24a.34.34,0,0,1-.1.26.41.41,0,0,1-.27.1h-5.75v.16a3.49,3.49,0,0,0,.2,1.06,3.41,3.41,0,0,0,.51.92,2.75,2.75,0,0,0,.79.64,2.31,2.31,0,0,0,1.05.24,2.77,2.77,0,0,0,.91-.13,3.41,3.41,0,0,0,.66-.3,2.05,2.05,0,0,0,.44-.35,2.1,2.1,0,0,0,.24-.27c.1-.14.17-.23.23-.25a.54.54,0,0,1,.25,0h.26a.37.37,0,0,1,.25.09.24.24,0,0,1,.09.23,1.22,1.22,0,0,1-.25.57,2.89,2.89,0,0,1-.66.64,4,4,0,0,1-2.42.74,3.53,3.53,0,0,1-1.4-.26,3.07,3.07,0,0,1-1.08-.76,3.44,3.44,0,0,1-.72-1.18,5.13,5.13,0,0,1-.33-1.51c0-.16,0-.38,0-.65S420.62,411.66,420.63,411.5Zm1,.14h5.14v-.06a3.37,3.37,0,0,0-.18-1.12,2.84,2.84,0,0,0-.51-.92,2.2,2.2,0,0,0-.81-.6,2.59,2.59,0,0,0-1.09-.22,2.45,2.45,0,0,0-1.08.22,2.25,2.25,0,0,0-.8.6,2.64,2.64,0,0,0-.5.92,3.65,3.65,0,0,0-.17,1.12Z" transform="translate(-102.21 -308.37)"/><path class="cls-1" d="M430.85,408.86a3,3,0,0,1,.95-.8,3.08,3.08,0,0,1,1.36-.28,3,3,0,0,1,1.57.39,2.68,2.68,0,0,1,1,1.13,2.77,2.77,0,0,1,1.09-1.11,3.31,3.31,0,0,1,1.65-.41,3.17,3.17,0,0,1,1.2.23,2.71,2.71,0,0,1,.95.66,3.14,3.14,0,0,1,.64,1.09,4.48,4.48,0,0,1,.23,1.53V416a.31.31,0,0,1-.35.35h-.28a.31.31,0,0,1-.35-.35v-4.54a4.12,4.12,0,0,0-.18-1.32,2.26,2.26,0,0,0-.48-.84,1.66,1.66,0,0,0-.71-.44,2.53,2.53,0,0,0-.83-.13,2.19,2.19,0,0,0-.75.13,1.73,1.73,0,0,0-.69.44,2.3,2.3,0,0,0-.51.84,3.82,3.82,0,0,0-.2,1.32V416a.31.31,0,0,1-.35.35h-.28a.31.31,0,0,1-.35-.35v-4.54a3.82,3.82,0,0,0-.2-1.32,2.29,2.29,0,0,0-.5-.84,1.63,1.63,0,0,0-.7-.44,2.44,2.44,0,0,0-.8-.13,2.19,2.19,0,0,0-.75.13,1.76,1.76,0,0,0-.7.44,2.19,2.19,0,0,0-.5.83,3.76,3.76,0,0,0-.2,1.31V416a.31.31,0,0,1-.35.35h-.28a.31.31,0,0,1-.35-.35V408.3c0-.24.11-.36.35-.36h.28a.32.32,0,0,1,.35.36Z" transform="translate(-102.21 -308.37)"/><path class="cls-1" d="M449,414.1a1.09,1.09,0,0,0-.14-.57,1.21,1.21,0,0,0-.45-.41,3.83,3.83,0,0,0-.84-.34q-.52-.15-1.29-.33A6.42,6.42,0,0,1,445,412a2.69,2.69,0,0,1-.76-.54,1.6,1.6,0,0,1-.37-.64,2.94,2.94,0,0,1-.1-.74,2.12,2.12,0,0,1,.18-.84,2.17,2.17,0,0,1,.54-.75,3,3,0,0,1,.91-.54,3.48,3.48,0,0,1,1.27-.21A3.81,3.81,0,0,1,448,408a3.3,3.3,0,0,1,.92.5,2.29,2.29,0,0,1,.52.59,1.2,1.2,0,0,1,.19.48.28.28,0,0,1-.1.26.39.39,0,0,1-.26.09H449a.38.38,0,0,1-.35-.21c-.09-.13-.18-.25-.28-.37A1.42,1.42,0,0,0,448,409a1.92,1.92,0,0,0-.56-.22,3.69,3.69,0,0,0-.81-.08,2.21,2.21,0,0,0-1.44.39,1.28,1.28,0,0,0-.47,1,1.07,1.07,0,0,0,.1.49.9.9,0,0,0,.37.39,2.93,2.93,0,0,0,.75.35,12.9,12.9,0,0,0,1.25.34,7.8,7.8,0,0,1,1.3.4,3.28,3.28,0,0,1,.84.52,1.69,1.69,0,0,1,.45.66,2.45,2.45,0,0,1,.14.83,2.1,2.1,0,0,1-.21.92,2.24,2.24,0,0,1-.61.77,3.15,3.15,0,0,1-1,.52,4.54,4.54,0,0,1-1.39.19,4.19,4.19,0,0,1-1.46-.22,3.75,3.75,0,0,1-1-.53,2.56,2.56,0,0,1-.58-.63,1.44,1.44,0,0,1-.2-.47.29.29,0,0,1,.11-.27.45.45,0,0,1,.25-.09h.24a.47.47,0,0,1,.17,0,.73.73,0,0,1,.19.18,3.12,3.12,0,0,0,.33.41,1.92,1.92,0,0,0,.46.33,2.58,2.58,0,0,0,.63.24,3.37,3.37,0,0,0,.84.09,3.21,3.21,0,0,0,1.6-.37A1.21,1.21,0,0,0,449,414.1Z" transform="translate(-102.21 -308.37)"/><path class="cls-1" d="M251.85,323.93a2.15,2.15,0,0,1,2.13,2.12v5.6a2.15,2.15,0,0,1-2.13,2.13H237.66V377a2.15,2.15,0,0,1-2.13,2.13h-6.39A2.15,2.15,0,0,1,227,377V333.78H212.82a2.15,2.15,0,0,1-2.13-2.13v-5.6a2.15,2.15,0,0,1,2.13-2.12Z" transform="translate(-102.21 -308.37)"/><path class="cls-1" d="M338.12,323.93q9.86,0,15,4.57t5.13,12.7a17.6,17.6,0,0,1-2.64,9.81,15.64,15.64,0,0,1-7.77,6l10.88,19.47a2,2,0,0,1,.24.87,1.76,1.76,0,0,1-1.73,1.74H350.5a3.16,3.16,0,0,1-2.32-.75,5.62,5.62,0,0,1-1.07-1.38l-10.33-18.38H326.29V377a2.15,2.15,0,0,1-2.13,2.13h-6.38a2.15,2.15,0,0,1-2.13-2.13V326.05a2.15,2.15,0,0,1,2.13-2.12Zm-11.83,24.84h11.44a14.09,14.09,0,0,0,7.17-1.58q2.69-1.57,2.68-6t-2.68-5.92a14.67,14.67,0,0,0-7.17-1.5H326.29Z" transform="translate(-102.21 -308.37)"/><path class="cls-1" d="M404.68,323.93a2.15,2.15,0,0,1,2.13,2.12v5.6a2.15,2.15,0,0,1-2.13,2.13h-14.2V377a2.15,2.15,0,0,1-2.12,2.13H382a2.15,2.15,0,0,1-2.13-2.13V333.78h-14.2a2,2,0,0,1-1.49-.63,2,2,0,0,1-.63-1.5v-5.6a2,2,0,0,1,.63-1.49,2,2,0,0,1,1.49-.63Z" transform="translate(-102.21 -308.37)"/><path class="cls-1" d="M416.82,379.13a2.15,2.15,0,0,1-2.13-2.13V326.05a2.15,2.15,0,0,1,2.13-2.12h6.39a2.15,2.15,0,0,1,2.13,2.12V377a2.15,2.15,0,0,1-2.13,2.13Z" transform="translate(-102.21 -308.37)"/><path class="cls-1" d="M456.57,323.14a27.8,27.8,0,0,1,9.3,1.42,22.75,22.75,0,0,1,6.7,3.55,15.15,15.15,0,0,1,4.06,4.69,12,12,0,0,1,1.54,4.85,1.72,1.72,0,0,1-.59,1.53,2.25,2.25,0,0,1-1.54.6h-5.52a3.24,3.24,0,0,1-2-.52,5.37,5.37,0,0,1-1.22-1.38,10.33,10.33,0,0,0-3.59-3.43q-2.4-1.45-7.13-1.46a17.1,17.1,0,0,0-3.91.44,11.34,11.34,0,0,0-3.23,1.26,6.69,6.69,0,0,0-2.17,2,4.69,4.69,0,0,0-.79,2.68,5.3,5.3,0,0,0,.75,3,5.9,5.9,0,0,0,2.52,2,25.85,25.85,0,0,0,4.7,1.54q2.91.7,7.25,1.65a51.21,51.21,0,0,1,8.16,2.41,19,19,0,0,1,5.6,3.31,12.39,12.39,0,0,1,3.24,4.46,14.85,14.85,0,0,1,1.06,5.75,14.09,14.09,0,0,1-1.58,6.59,15.14,15.14,0,0,1-4.49,5.2,22.71,22.71,0,0,1-7.18,3.43,33.58,33.58,0,0,1-9.54,1.27,32.86,32.86,0,0,1-8.44-1.07,24.81,24.81,0,0,1-7.14-3.07,17.17,17.17,0,0,1-5-4.85,12.82,12.82,0,0,1-2.13-6.31,1.74,1.74,0,0,1,.59-1.54,2.24,2.24,0,0,1,1.54-.59h5.52A3.74,3.74,0,0,1,444,363a3.59,3.59,0,0,1,1.18,1.42,15.94,15.94,0,0,0,1.34,2.05,7.39,7.39,0,0,0,2.13,1.81,13,13,0,0,0,3.35,1.31,20.77,20.77,0,0,0,5,.51,28.3,28.3,0,0,0,4.57-.36,13.32,13.32,0,0,0,3.87-1.18,8.26,8.26,0,0,0,2.68-2,4.58,4.58,0,0,0,1-3,3.84,3.84,0,0,0-1.1-2.84,9,9,0,0,0-3.35-1.89,49.11,49.11,0,0,0-5.56-1.5q-3.31-.7-7.65-1.81a40.52,40.52,0,0,1-6.9-2.25,16.18,16.18,0,0,1-4.89-3.19,11.91,11.91,0,0,1-2.88-4.46,17.64,17.64,0,0,1-.94-6.11,13.85,13.85,0,0,1,1.57-6.54,15.58,15.58,0,0,1,4.34-5.13,21.34,21.34,0,0,1,6.58-3.35A26.8,26.8,0,0,1,456.57,323.14Z" transform="translate(-102.21 -308.37)"/><path class="cls-2" d="M185.09,383.85a1.15,1.15,0,0,1-.64,1.14c-4.62,2.64-9.22,5.33-13.86,8a1.45,1.45,0,0,1-1.19,0q-6.94-4-13.84-8a1.35,1.35,0,0,1-.55-1q0-8,0-16a1.43,1.43,0,0,1,.59-1q6.9-4,13.85-8a1.32,1.32,0,0,1,1.1,0c4.63,2.64,9.24,5.32,13.86,8a1.2,1.2,0,0,1,.67,1.21C185.06,370.74,185.06,381.23,185.09,383.85Z" transform="translate(-102.21 -308.37)"/><path class="cls-2" d="M150.94,383.87a1.14,1.14,0,0,1-.63,1.14q-6.9,3.94-13.77,7.95a1.14,1.14,0,0,1-1.31,0q-6.82-4-13.68-7.9a1.25,1.25,0,0,1-.72-1.27q0-7.81,0-15.64a1.25,1.25,0,0,1,.75-1.25q6.86-3.93,13.69-7.91a1.1,1.1,0,0,1,1.29,0q6.82,4,13.69,7.9a1.25,1.25,0,0,1,.7,1.28C150.91,370.76,150.92,381.25,150.94,383.87Z" transform="translate(-102.21 -308.37)"/><path class="cls-2" d="M167.94,354.38a1.13,1.13,0,0,1-.66,1.13q-6.78,3.87-13.52,7.81a1.38,1.38,0,0,1-1.61,0q-6.74-3.94-13.52-7.8a1.21,1.21,0,0,1-.68-1.21c0-5.27,0-10.54,0-15.81a1.19,1.19,0,0,1,.71-1.2q6.81-3.89,13.6-7.85a1.19,1.19,0,0,1,1.38,0q6.75,3.93,13.52,7.81a1.31,1.31,0,0,1,.78,1.33C167.9,341.22,167.91,351.76,167.94,354.38Z" transform="translate(-102.21 -308.37)"/><path class="cls-2" d="M167.94,413.48a1.25,1.25,0,0,1-.71,1.27c-4.58,2.61-9.12,5.26-13.7,7.86a1.43,1.43,0,0,1-1.18,0c-4.55-2.59-9.08-5.23-13.62-7.82a1.34,1.34,0,0,1-.79-1.33c0-5.24,0-10.48,0-15.73a1.18,1.18,0,0,1,.68-1.2q6.83-3.9,13.6-7.85a1.26,1.26,0,0,1,1.46,0c4.53,2.63,9.06,5.26,13.6,7.85a1.13,1.13,0,0,1,.65,1.13C167.92,400.31,167.91,410.86,167.94,413.48Z" transform="translate(-102.21 -308.37)"/><path d="M172,340l3.93,2.23q8.51,4.9,17,9.81a1.34,1.34,0,0,1,.76,1.34q0,22.61,0,45.22a1.26,1.26,0,0,1-.71,1.28q-10.14,5.82-20.26,11.68a6.83,6.83,0,0,1-.69.31c0-.34,0-.6,0-.86,0-4.44,0-8.88,0-13.32a1.31,1.31,0,0,1,.78-1.32c5.14-2.94,10.26-5.92,15.4-8.85a1.66,1.66,0,0,0,1-1.67q-.06-9.92,0-19.84a1.59,1.59,0,0,0-.92-1.61c-5.15-2.94-10.26-5.92-15.4-8.86a1.44,1.44,0,0,1-.87-1.45c0-4.35,0-8.7,0-13.05Z" transform="translate(-102.21 -308.37)"/><path d="M133.81,340.08c0,2.87,0,12.16,0,14.16a1.33,1.33,0,0,1-.77,1.34c-5.11,2.93-10.2,5.9-15.32,8.82a1.65,1.65,0,0,0-1,1.68q0,9.84,0,19.67a1.8,1.8,0,0,0,1,1.82c5.09,2.9,10.16,5.85,15.24,8.77.43.25.77.46.77,1.06,0,4.62,0,9.24,0,13.86,0,.14,0,.29-.07.55-.31-.15-.58-.26-.82-.4-6.62-3.82-13.24-7.66-19.88-11.46a1.39,1.39,0,0,1-.79-1.41q0-22.53,0-45.05a1.45,1.45,0,0,1,.84-1.48q9.84-5.62,19.65-11.32Z" transform="translate(-102.21 -308.37)"/><path d="M135.49,334.4v-6.18c0-3.07,0-6.13,0-9.2a1.21,1.21,0,0,1,.7-1.2c5.41-3.1,10.82-6.24,16.24-9.34a1.31,1.31,0,0,1,1.11,0q8.14,4.63,16.23,9.37a1.38,1.38,0,0,1,.65,1c0,5,0,10,0,15a3.31,3.31,0,0,1-.07.47l-1.42-.8q-7.62-4.38-15.22-8.79a1.34,1.34,0,0,0-1.54,0c-5.14,3-10.3,6-15.45,8.94Z" transform="translate(-102.21 -308.37)"/><path d="M108.19,394.36c0,2.19,0,4.33,0,6.46a1.5,1.5,0,0,0,.91,1.53q9.36,5.36,18.7,10.79l1,.58c-.75.69-1.44,1.29-2.09,1.93-1.34,1.31-2.68,2.62-4,4a1.37,1.37,0,0,1-1.56.41c-4.69-1.28-9.39-2.53-14.09-3.78a1.19,1.19,0,0,1-1-1c-1.25-4.79-2.55-9.57-3.81-14.36a1.15,1.15,0,0,1,.13-.94c1.81-1.86,3.65-3.68,5.49-5.51C107.92,394.44,108,394.43,108.19,394.36Z" transform="translate(-102.21 -308.37)"/><path d="M177.26,413.64l5.5-3.18c4.71-2.72,9.41-5.45,14.14-8.15a1.43,1.43,0,0,0,.84-1.47c0-2.14,0-4.27,0-6.67.51.5.86.84,1.2,1.19,1.46,1.45,2.89,2.92,4.37,4.34a1.19,1.19,0,0,1,.38,1.33q-1.92,7.08-3.79,14.17a1.28,1.28,0,0,1-1,1.08c-4.79,1.24-9.58,2.53-14.37,3.78a1.25,1.25,0,0,1-1-.19C181.45,417.86,179.43,415.8,177.26,413.64Z" transform="translate(-102.21 -308.37)"/><path d="M108.19,360.1c-1.69-1.7-3.17-3.33-4.82-4.77a2.64,2.64,0,0,1-.85-3.2c1.26-4.3,2.36-8.64,3.48-13a1.48,1.48,0,0,1,1.2-1.21c4.7-1.23,9.4-2.5,14.09-3.78a1.19,1.19,0,0,1,1.33.36c1.48,1.54,3,3,4.63,4.64l-3.56,2.06c-4.89,2.83-9.78,5.67-14.69,8.47a1.44,1.44,0,0,0-.82,1.48c0,2.62,0,5.24,0,7.86Z" transform="translate(-102.21 -308.37)"/><path d="M178.7,339.16c1.7-1.71,3.31-3.33,5-4.93a.89.89,0,0,1,.71-.09q7.39,2,14.78,4a1.07,1.07,0,0,1,.61.64q2,7.38,4,14.78a.81.81,0,0,1-.08.64c-1.92,1.94-3.85,3.86-5.91,5.91,0-2.88-.07-5.58,0-8.28a2.33,2.33,0,0,0-1.38-2.43c-5.63-3.16-11.2-6.42-16.79-9.65C179.33,339.56,179.09,339.4,178.7,339.16Z" transform="translate(-102.21 -308.37)"/><path class="cls-1" d="M281.33,321.48a30.24,30.24,0,1,0,30.13,30.38A30.24,30.24,0,0,0,281.33,321.48ZM281.12,376a24.32,24.32,0,1,1,24.42-24.28A24.45,24.45,0,0,1,281.12,376Z" transform="translate(-102.21 -308.37)"/><path class="cls-1" d="M298,351.4c0-2.51,2.3-1.56,3.7-1.88.33-8.55-11.44-19.88-18.89-18.22-.15,2.61-.49,3.39-1.68,3.37-2.43,0-1.82-2.06-2.06-3.47-9.74.65-18,9.43-18.37,18.59,1.37.21,3.48-.5,3.5,1.84s-2.16,1.54-3.48,1.86c.24,10.16,10.09,18.77,18.69,18.64,0-.62,0-1.25,0-1.87a1.8,1.8,0,1,1,3.59,0c0,.65,0,1.3,0,2,10.3-.47,18.67-10,18.7-19C300.36,352.86,298,353.93,298,351.4Z" transform="translate(-102.21 -308.37)"/><path class="cls-2" d="M281.25,349.31c-1.6-1.61-3.08-3.14-4.59-4.64-1-1-2.08-1.1-2.91-.26s-.73,1.85.31,2.9c1.87,1.89,3.75,3.78,5.64,5.65,1.13,1.11,2.07,1.12,3.18,0q5.19-5.14,10.34-10.34c1-1,1-2,.27-2.81s-1.89-.8-2.91.21c-2.79,2.76-5.56,5.55-8.34,8.33C282,348.66,281.65,348.93,281.25,349.31Z" transform="translate(-102.21 -308.37)"/></svg>